Coordinates
version=1
nRows=19
nColumns=24
inDegrees=yes

Units are S.I. units (second, meters, Newtons, ...)
Angles are in degrees.

endheader
time	pelvis_tilt	pelvis_list	pelvis_rotation	pelvis_tx	pelvis_ty	pelvis_tz	hip_flexion_r	hip_adduction_r	hip_rotation_r	knee_angle_r	ankle_angle_r	subtalar_angle_r	mtp_angle_r	hip_flexion_l	hip_adduction_l	hip_rotation_l	knee_angle_l	ankle_angle_l	subtalar_angle_l	mtp_angle_l	lumbar_extension	lumbar_bending	lumbar_rotation
      5.82000000	      7.20589503	     -5.27228563	     13.31781803	      2.17460530	      0.88336880	     -0.26260066	     16.94089134	      7.10249846	    -15.09863678	    -30.78623177	     27.21545949	      7.80428511	      0.00000000	      0.78892393	     -8.84154493	      5.35388486	    -65.14315166	      0.54574347	      4.00930316	      0.00000000	    -27.73504422	     12.21014261	    -12.37069007
      5.83000000	      7.04972589	     -5.10428180	     13.47829975	      2.18876112	      0.88741731	     -0.26213924	     15.32397151	      7.36757449	    -14.96857455	    -29.41951004	     27.47677269	      7.76268906	      0.00000000	      3.14735230	     -8.24640135	      5.78535174	    -66.52276164	      2.29534490	      3.86852102	      0.00000000	    -27.38602166	     11.88313584	    -12.10668304
      5.84000000	      6.83473644	     -4.82232072	     13.49009989	      2.20290927	      0.89165986	     -0.26153029	     13.64583959	      7.57992853	    -14.55998069	    -27.87111426	     27.56095230	      7.59153788	      0.00000000	      5.39139485	     -7.48813500	      5.99645253	    -67.44187694	      3.86648353	      3.67696050	      0.00000000	    -27.01810849	     11.36735331	    -11.75273120
      5.85000000	      6.58762133	     -4.40540951	     13.38580053	      2.21706225	      0.89603643	     -0.26081455	     11.88119846	      7.69027325	    -13.93909819	    -26.16396698	     27.54758219	      7.33745022	      0.00000000	      7.48005956	     -6.57032010	      6.01250845	    -67.89993775	      5.24821844	      3.47773871	      0.00000000	    -26.65777305	     10.65635980	    -11.34912432
      5.86000000	      6.29165746	     -3.92881369	     13.18481466	      2.23122906	      0.90036545	     -0.26001929	     10.07560703	      7.75440972	    -13.13390115	    -24.30539543	     27.38264667	      6.94935899	      0.00000000	      9.46153856	     -5.59552201	      5.84237966	    -67.93518551	      6.45564332	      3.20381474	      0.00000000	    -26.26276490	      9.84225005	    -10.85823051
      5.87000000	      5.98871731	     -3.45782938	     12.94331661	      2.24540261	      0.90455217	     -0.25919434	      8.19324293	      7.84822291	    -12.13503922	    -22.26299009	     26.96440955	      6.23956942	      0.00000000	     11.32822863	     -4.65858769	      5.54376597	    -67.58785056	      7.55810111	      2.85427495	      0.00000000	    -25.85585930	      9.03076233	    -10.35427532
      5.88000000	      5.64818596	     -2.87205763	     12.62041784	      2.25954113	      0.90850476	     -0.25836041	      6.32046352	      7.77005781	    -11.10044694	    -20.21619654	     26.58524921	      5.63439877	      0.00000000	     13.06701030	     -3.62197655	      5.07417252	    -66.84884719	      8.52690465	      2.49255486	      0.00000000	    -25.44589478	      8.07198935	     -9.82740093
      5.89000000	      5.28377315	     -2.24295069	     12.27227862	      2.27363567	      0.91210680	     -0.25755587	      4.46581168	      7.59808878	    -10.09176284	    -18.14886990	     26.17763989	      4.96867543	      0.00000000	     14.70403353	     -2.56241740	      4.51157735	    -65.76015062	      9.44228976	      2.11173290	      0.00000000	    -25.02961957	      7.06123725	     -9.28681830
      5.90000000	      4.90035848	     -1.58860079	     11.88666626	      2.28771073	      0.91528683	     -0.25677576	      2.64584041	      7.34497601	     -9.15201330	    -16.09403461	     25.76022142	      4.33672876	      0.00000000	     16.24310886	     -1.52021428	      3.83351889	    -64.34392359	     10.27008534	      1.73979014	      0.00000000	    -24.59905411	      6.02383275	     -8.75583677
      5.91000000	      4.51991069	     -0.93824729	     11.45874852	      2.30175505	      0.91799269	     -0.25602494	      0.86731682	      7.03831117	     -8.36626977	    -14.08842208	     25.40911270	      3.81697086	      0.00000000	     17.67054521	     -0.52574335	      3.06192585	    -62.62054536	     11.02101337	      1.31172283	      0.00000000	    -24.18322364	      4.99471820	     -8.16033633
      5.92000000	      4.14326286	     -0.31828207	     11.01172190	      2.31577176	      0.92018017	     -0.25531305	     -0.86834847	      6.71693795	     -7.74735879	    -12.12453437	     25.08706481	      3.39469277	      0.00000000	     19.00257877	      0.38860849	      2.22658507	    -60.61891693	     11.69332703	      0.92717303	      0.00000000	    -23.77076229	      4.01079405	     -7.56351717
      5.93000000	      3.78074724	      0.23936092	     10.57033762	      2.32975631	      0.92182391	     -0.25467420	     -2.57662254	      6.42968103	     -7.27525843	    -10.18556351	     24.74106752	      2.98446103	      0.00000000	     20.23811371	      1.20012748	      1.37437367	    -58.36069989	     12.28713468	      0.61135287	      0.00000000	    -23.36781203	      3.12016147	     -6.96651439
      5.94000000	      3.44767797	      0.70658911	     10.13620962	      2.34367957	      0.92291883	     -0.25412507	     -4.27312299	      6.21364967	     -6.93789378	     -8.27171891	     24.40433683	      2.64796505	      0.00000000	     21.36848875	      1.88521409	      0.52635889	    -55.86675928	     12.79197482	      0.34228116	      0.00000000	    -22.99758287	      2.36173401	     -6.35155942
      5.95000000	      3.12992822	      1.06131905	      9.73114497	      2.35755919	      0.92343708	     -0.25368506	     -5.97666533	      6.10867070	     -6.53625385	     -6.33370624	     23.95853099	      2.14901445	      0.00000000	     22.40792041	      2.43411852	     -0.28166219	    -53.15068365	     13.20555766	      0.19819028	      0.00000000	    -22.63269257	      1.76667179	     -5.77278709
      5.96000000	      2.91198402	      1.30407722	      9.33519694	      2.37138650	      0.92348618	     -0.25337853	     -7.74226034	      6.10219693	     -6.29712002	     -4.44855130	     23.60457175	      1.90024852	      0.00000000	     23.24411806	      2.85599257	     -1.01778635	    -50.20086000	     13.56898959	      0.07603828	      0.00000000	    -22.38676417	      1.35002983	     -5.13779470
      5.97000000	      2.65899238	      1.44637479	      8.99577535	      2.38519130	      0.92289801	     -0.25321028	     -9.51765963	      6.19260895	     -5.63219079	     -2.47528931	     22.91420168	      0.96850655	      0.00000000	     24.02511272	      3.19051510	     -1.65987725	    -47.03768850	     13.79344731	      0.18682986	      0.00000000	    -22.08541244	      1.07295710	     -4.55694357
      5.98000000	      2.47105725	      1.49599293	      8.63002384	      2.39900608	      0.92181105	     -0.25313989	    -11.31954654	      6.33322338	     -4.93959688	     -0.59409118	     22.34319344	      0.20306535	      0.00000000	     24.60762243	      3.43504190	     -2.20994934	    -43.63453464	     13.98794486	      0.36645344	      0.00000000	    -21.85521317	      0.93296541	     -3.91815977
      5.99000000	      2.35266237	      1.48620246	      8.26168209	      2.41284094	      0.92028892	     -0.25316521	    -13.14897574	      6.49060752	     -4.28871215	      1.18176243	     21.79924197	     -0.39190510	      0.00000000	     24.96774468	      3.62767434	     -2.64576628	    -39.96983199	     14.01015205	      0.70796586	      0.00000000	    -21.71392841	      0.89361946	     -3.32141760
      6.00000000	      2.25133657	      1.41094678	      7.82191337	      2.42673541	      0.91826986	     -0.25320881	    -14.92113399	      6.63787606	     -3.46137998	      2.78848799	     21.36412243	     -0.97595910	      0.00000000	     25.14861202	      3.76758870	     -2.94071981	    -36.04605871	     13.94530262	      1.09214073	      0.00000000	    -21.58590007	      0.92898599	     -2.63433931
